<mxfile host="app.diagrams.net" modified="2022-05-12T10:11:35.371Z" agent="5.0 (Windows NT 10.0; Win64; x64) AppleWebKit/537.36 (KHTML, like Gecko) Chrome/101.0.4951.54 Safari/537.36" etag="Qs2l6THIOFLtGmwKXmFC" version="18.0.3" type="github">
  <diagram id="NUiRZpOZK513rjNv98Oe" name="Page-1">
    <mxGraphModel dx="2889" dy="1057" grid="1" gridSize="10" guides="1" tooltips="1" connect="1" arrows="1" fold="1" page="1" pageScale="1" pageWidth="827" pageHeight="1169" background="#ffffff" math="0" shadow="1">
      <root>
        <mxCell id="0" />
        <mxCell id="1" parent="0" />
        <mxCell id="e8OPRsYG1ByIHUOe2Pd6-8" style="edgeStyle=orthogonalEdgeStyle;rounded=0;orthogonalLoop=1;jettySize=auto;html=1;exitX=1;exitY=0.5;exitDx=0;exitDy=0;endArrow=none;endFill=0;" edge="1" parent="1" source="e8OPRsYG1ByIHUOe2Pd6-1" target="e8OPRsYG1ByIHUOe2Pd6-4">
          <mxGeometry relative="1" as="geometry" />
        </mxCell>
        <mxCell id="e8OPRsYG1ByIHUOe2Pd6-9" style="edgeStyle=orthogonalEdgeStyle;rounded=0;orthogonalLoop=1;jettySize=auto;html=1;exitX=1;exitY=0.5;exitDx=0;exitDy=0;endArrow=none;endFill=0;entryX=0;entryY=0.5;entryDx=0;entryDy=0;" edge="1" parent="1" source="e8OPRsYG1ByIHUOe2Pd6-1" target="e8OPRsYG1ByIHUOe2Pd6-5">
          <mxGeometry relative="1" as="geometry" />
        </mxCell>
        <mxCell id="e8OPRsYG1ByIHUOe2Pd6-10" style="edgeStyle=orthogonalEdgeStyle;rounded=0;orthogonalLoop=1;jettySize=auto;html=1;exitX=1;exitY=0.5;exitDx=0;exitDy=0;entryX=0;entryY=0.5;entryDx=0;entryDy=0;endArrow=none;endFill=0;" edge="1" parent="1" source="e8OPRsYG1ByIHUOe2Pd6-1" target="e8OPRsYG1ByIHUOe2Pd6-6">
          <mxGeometry relative="1" as="geometry" />
        </mxCell>
        <mxCell id="e8OPRsYG1ByIHUOe2Pd6-11" style="edgeStyle=orthogonalEdgeStyle;rounded=0;orthogonalLoop=1;jettySize=auto;html=1;exitX=1;exitY=0.5;exitDx=0;exitDy=0;entryX=0;entryY=0.5;entryDx=0;entryDy=0;endArrow=none;endFill=0;" edge="1" parent="1" source="e8OPRsYG1ByIHUOe2Pd6-1" target="e8OPRsYG1ByIHUOe2Pd6-7">
          <mxGeometry relative="1" as="geometry" />
        </mxCell>
        <mxCell id="e8OPRsYG1ByIHUOe2Pd6-12" style="edgeStyle=orthogonalEdgeStyle;rounded=0;orthogonalLoop=1;jettySize=auto;html=1;exitX=1;exitY=0.5;exitDx=0;exitDy=0;entryX=0;entryY=0.5;entryDx=0;entryDy=0;endArrow=none;endFill=0;" edge="1" parent="1" source="e8OPRsYG1ByIHUOe2Pd6-1" target="e8OPRsYG1ByIHUOe2Pd6-3">
          <mxGeometry relative="1" as="geometry" />
        </mxCell>
        <mxCell id="e8OPRsYG1ByIHUOe2Pd6-13" style="edgeStyle=orthogonalEdgeStyle;rounded=0;orthogonalLoop=1;jettySize=auto;html=1;exitX=1;exitY=0.5;exitDx=0;exitDy=0;entryX=0;entryY=0.5;entryDx=0;entryDy=0;endArrow=none;endFill=0;" edge="1" parent="1" source="e8OPRsYG1ByIHUOe2Pd6-1" target="e8OPRsYG1ByIHUOe2Pd6-2">
          <mxGeometry relative="1" as="geometry" />
        </mxCell>
        <mxCell id="e8OPRsYG1ByIHUOe2Pd6-1" value="地震勘测项目数据管理系统" style="rounded=1;whiteSpace=wrap;html=1;" vertex="1" parent="1">
          <mxGeometry x="-510" y="1121" width="80" height="239" as="geometry" />
        </mxCell>
        <mxCell id="e8OPRsYG1ByIHUOe2Pd6-26" style="edgeStyle=orthogonalEdgeStyle;rounded=0;orthogonalLoop=1;jettySize=auto;html=1;exitX=1;exitY=0.5;exitDx=0;exitDy=0;endArrow=none;endFill=0;" edge="1" parent="1" source="e8OPRsYG1ByIHUOe2Pd6-2" target="e8OPRsYG1ByIHUOe2Pd6-25">
          <mxGeometry relative="1" as="geometry" />
        </mxCell>
        <mxCell id="e8OPRsYG1ByIHUOe2Pd6-2" value="&lt;span&gt;登录模块&lt;/span&gt;" style="rounded=0;whiteSpace=wrap;html=1;" vertex="1" parent="1">
          <mxGeometry x="-241.5" y="676.26" width="137" height="70" as="geometry" />
        </mxCell>
        <mxCell id="e8OPRsYG1ByIHUOe2Pd6-31" style="edgeStyle=orthogonalEdgeStyle;rounded=0;orthogonalLoop=1;jettySize=auto;html=1;exitX=1;exitY=0.5;exitDx=0;exitDy=0;endArrow=none;endFill=0;entryX=0;entryY=0.5;entryDx=0;entryDy=0;" edge="1" parent="1" source="e8OPRsYG1ByIHUOe2Pd6-3" target="e8OPRsYG1ByIHUOe2Pd6-30">
          <mxGeometry relative="1" as="geometry" />
        </mxCell>
        <mxCell id="e8OPRsYG1ByIHUOe2Pd6-32" style="edgeStyle=orthogonalEdgeStyle;rounded=0;orthogonalLoop=1;jettySize=auto;html=1;exitX=1;exitY=0.5;exitDx=0;exitDy=0;endArrow=none;endFill=0;" edge="1" parent="1" source="e8OPRsYG1ByIHUOe2Pd6-3" target="e8OPRsYG1ByIHUOe2Pd6-27">
          <mxGeometry relative="1" as="geometry" />
        </mxCell>
        <mxCell id="e8OPRsYG1ByIHUOe2Pd6-33" style="edgeStyle=orthogonalEdgeStyle;rounded=0;orthogonalLoop=1;jettySize=auto;html=1;exitX=1;exitY=0.5;exitDx=0;exitDy=0;entryX=0.008;entryY=0.424;entryDx=0;entryDy=0;entryPerimeter=0;endArrow=none;endFill=0;" edge="1" parent="1" source="e8OPRsYG1ByIHUOe2Pd6-3" target="e8OPRsYG1ByIHUOe2Pd6-29">
          <mxGeometry relative="1" as="geometry" />
        </mxCell>
        <mxCell id="e8OPRsYG1ByIHUOe2Pd6-34" style="edgeStyle=orthogonalEdgeStyle;rounded=0;orthogonalLoop=1;jettySize=auto;html=1;exitX=1;exitY=0.5;exitDx=0;exitDy=0;entryX=0;entryY=0.5;entryDx=0;entryDy=0;endArrow=none;endFill=0;" edge="1" parent="1" source="e8OPRsYG1ByIHUOe2Pd6-3" target="e8OPRsYG1ByIHUOe2Pd6-28">
          <mxGeometry relative="1" as="geometry" />
        </mxCell>
        <mxCell id="e8OPRsYG1ByIHUOe2Pd6-3" value="项目管理模块" style="rounded=0;whiteSpace=wrap;html=1;" vertex="1" parent="1">
          <mxGeometry x="-240" y="870" width="137" height="70" as="geometry" />
        </mxCell>
        <mxCell id="e8OPRsYG1ByIHUOe2Pd6-38" style="edgeStyle=orthogonalEdgeStyle;rounded=0;orthogonalLoop=1;jettySize=auto;html=1;exitX=1;exitY=0.5;exitDx=0;exitDy=0;endArrow=none;endFill=0;entryX=0;entryY=0.5;entryDx=0;entryDy=0;" edge="1" parent="1" source="e8OPRsYG1ByIHUOe2Pd6-4" target="e8OPRsYG1ByIHUOe2Pd6-35">
          <mxGeometry relative="1" as="geometry" />
        </mxCell>
        <mxCell id="e8OPRsYG1ByIHUOe2Pd6-39" style="edgeStyle=orthogonalEdgeStyle;rounded=0;orthogonalLoop=1;jettySize=auto;html=1;exitX=1;exitY=0.5;exitDx=0;exitDy=0;entryX=0;entryY=0.5;entryDx=0;entryDy=0;endArrow=none;endFill=0;" edge="1" parent="1" source="e8OPRsYG1ByIHUOe2Pd6-4" target="e8OPRsYG1ByIHUOe2Pd6-37">
          <mxGeometry relative="1" as="geometry" />
        </mxCell>
        <mxCell id="e8OPRsYG1ByIHUOe2Pd6-40" style="edgeStyle=orthogonalEdgeStyle;rounded=0;orthogonalLoop=1;jettySize=auto;html=1;exitX=1;exitY=0.5;exitDx=0;exitDy=0;entryX=0;entryY=0.5;entryDx=0;entryDy=0;endArrow=none;endFill=0;" edge="1" parent="1" source="e8OPRsYG1ByIHUOe2Pd6-4" target="e8OPRsYG1ByIHUOe2Pd6-36">
          <mxGeometry relative="1" as="geometry" />
        </mxCell>
        <mxCell id="e8OPRsYG1ByIHUOe2Pd6-4" value="文件管理模块" style="rounded=0;whiteSpace=wrap;html=1;" vertex="1" parent="1">
          <mxGeometry x="-241.5" y="1205.5" width="137" height="70" as="geometry" />
        </mxCell>
        <mxCell id="e8OPRsYG1ByIHUOe2Pd6-43" style="edgeStyle=orthogonalEdgeStyle;rounded=0;orthogonalLoop=1;jettySize=auto;html=1;exitX=1;exitY=0.5;exitDx=0;exitDy=0;entryX=0;entryY=0.5;entryDx=0;entryDy=0;endArrow=none;endFill=0;" edge="1" parent="1" source="e8OPRsYG1ByIHUOe2Pd6-5" target="e8OPRsYG1ByIHUOe2Pd6-41">
          <mxGeometry relative="1" as="geometry" />
        </mxCell>
        <mxCell id="e8OPRsYG1ByIHUOe2Pd6-44" style="edgeStyle=orthogonalEdgeStyle;rounded=0;orthogonalLoop=1;jettySize=auto;html=1;exitX=1;exitY=0.5;exitDx=0;exitDy=0;entryX=0.008;entryY=0.606;entryDx=0;entryDy=0;entryPerimeter=0;endArrow=none;endFill=0;" edge="1" parent="1" source="e8OPRsYG1ByIHUOe2Pd6-5" target="e8OPRsYG1ByIHUOe2Pd6-42">
          <mxGeometry relative="1" as="geometry" />
        </mxCell>
        <mxCell id="e8OPRsYG1ByIHUOe2Pd6-5" value="&lt;span style=&quot;font-size: 14px&quot;&gt;权限管理模块&lt;/span&gt;" style="rounded=0;whiteSpace=wrap;html=1;" vertex="1" parent="1">
          <mxGeometry x="-241.5" y="1440" width="137" height="70" as="geometry" />
        </mxCell>
        <mxCell id="e8OPRsYG1ByIHUOe2Pd6-46" style="edgeStyle=orthogonalEdgeStyle;rounded=0;orthogonalLoop=1;jettySize=auto;html=1;exitX=1;exitY=0.5;exitDx=0;exitDy=0;endArrow=none;endFill=0;" edge="1" parent="1" source="e8OPRsYG1ByIHUOe2Pd6-6" target="e8OPRsYG1ByIHUOe2Pd6-45">
          <mxGeometry relative="1" as="geometry" />
        </mxCell>
        <mxCell id="e8OPRsYG1ByIHUOe2Pd6-6" value="&lt;span style=&quot;font-size: 14px&quot;&gt;图层管理模块&lt;/span&gt;" style="rounded=0;whiteSpace=wrap;html=1;" vertex="1" parent="1">
          <mxGeometry x="-241.5" y="1676.25" width="137" height="70" as="geometry" />
        </mxCell>
        <mxCell id="e8OPRsYG1ByIHUOe2Pd6-50" style="edgeStyle=orthogonalEdgeStyle;rounded=0;orthogonalLoop=1;jettySize=auto;html=1;exitX=1;exitY=0.5;exitDx=0;exitDy=0;endArrow=none;endFill=0;entryX=0;entryY=0.5;entryDx=0;entryDy=0;" edge="1" parent="1" source="e8OPRsYG1ByIHUOe2Pd6-7" target="e8OPRsYG1ByIHUOe2Pd6-47">
          <mxGeometry relative="1" as="geometry" />
        </mxCell>
        <mxCell id="e8OPRsYG1ByIHUOe2Pd6-52" style="edgeStyle=orthogonalEdgeStyle;rounded=0;orthogonalLoop=1;jettySize=auto;html=1;exitX=1;exitY=0.5;exitDx=0;exitDy=0;entryX=0;entryY=0.5;entryDx=0;entryDy=0;endArrow=none;endFill=0;" edge="1" parent="1" source="e8OPRsYG1ByIHUOe2Pd6-7" target="e8OPRsYG1ByIHUOe2Pd6-48">
          <mxGeometry relative="1" as="geometry" />
        </mxCell>
        <mxCell id="e8OPRsYG1ByIHUOe2Pd6-53" style="edgeStyle=orthogonalEdgeStyle;rounded=0;orthogonalLoop=1;jettySize=auto;html=1;exitX=1;exitY=0.5;exitDx=0;exitDy=0;entryX=0;entryY=0.5;entryDx=0;entryDy=0;endArrow=none;endFill=0;" edge="1" parent="1" source="e8OPRsYG1ByIHUOe2Pd6-7" target="e8OPRsYG1ByIHUOe2Pd6-49">
          <mxGeometry relative="1" as="geometry" />
        </mxCell>
        <mxCell id="e8OPRsYG1ByIHUOe2Pd6-7" value="&lt;span style=&quot;font-size: 14px&quot;&gt;日志管理模块&lt;/span&gt;" style="rounded=0;whiteSpace=wrap;html=1;" vertex="1" parent="1">
          <mxGeometry x="-241.5" y="1860" width="137" height="70" as="geometry" />
        </mxCell>
        <mxCell id="e8OPRsYG1ByIHUOe2Pd6-25" value="登录" style="rounded=0;whiteSpace=wrap;html=1;" vertex="1" parent="1">
          <mxGeometry x="-20" y="681.26" width="100" height="60" as="geometry" />
        </mxCell>
        <mxCell id="e8OPRsYG1ByIHUOe2Pd6-27" value="项目添加" style="rounded=0;whiteSpace=wrap;html=1;" vertex="1" parent="1">
          <mxGeometry x="-20" y="875" width="100" height="60" as="geometry" />
        </mxCell>
        <mxCell id="e8OPRsYG1ByIHUOe2Pd6-28" value="项目删除&lt;span style=&quot;color: rgba(0 , 0 , 0 , 0) ; font-family: monospace ; font-size: 0px&quot;&gt;%3CmxGraphModel%3E%3Croot%3E%3CmxCell%20id%3D%220%22%2F%3E%3CmxCell%20id%3D%221%22%20parent%3D%220%22%2F%3E%3CmxCell%20id%3D%222%22%20value%3D%22%E9%A1%B9%E7%9B%AE%E6%B7%BB%E5%8A%A0%22%20style%3D%22rounded%3D0%3BwhiteSpace%3Dwrap%3Bhtml%3D1%3B%22%20vertex%3D%221%22%20parent%3D%221%22%3E%3CmxGeometry%20x%3D%22270%22%20y%3D%22760%22%20width%3D%2280%22%20height%3D%2260%22%20as%3D%22geometry%22%2F%3E%3C%2FmxCell%3E%3C%2Froot%3E%3C%2FmxGraphModel%3E&lt;/span&gt;" style="rounded=0;whiteSpace=wrap;html=1;" vertex="1" parent="1">
          <mxGeometry x="-20" y="1050" width="100" height="60" as="geometry" />
        </mxCell>
        <mxCell id="e8OPRsYG1ByIHUOe2Pd6-29" value="项目查询" style="rounded=0;whiteSpace=wrap;html=1;" vertex="1" parent="1">
          <mxGeometry x="-20" y="960" width="100" height="60" as="geometry" />
        </mxCell>
        <mxCell id="e8OPRsYG1ByIHUOe2Pd6-30" value="项目更新" style="rounded=0;whiteSpace=wrap;html=1;" vertex="1" parent="1">
          <mxGeometry x="-20" y="790" width="100" height="60" as="geometry" />
        </mxCell>
        <mxCell id="e8OPRsYG1ByIHUOe2Pd6-35" value="文件上传" style="rounded=0;whiteSpace=wrap;html=1;" vertex="1" parent="1">
          <mxGeometry x="-25" y="1130" width="100" height="60" as="geometry" />
        </mxCell>
        <mxCell id="e8OPRsYG1ByIHUOe2Pd6-36" value="文件下载" style="rounded=0;whiteSpace=wrap;html=1;" vertex="1" parent="1">
          <mxGeometry x="-25" y="1290" width="100" height="60" as="geometry" />
        </mxCell>
        <mxCell id="e8OPRsYG1ByIHUOe2Pd6-37" value="文件夹上传" style="rounded=0;whiteSpace=wrap;html=1;" vertex="1" parent="1">
          <mxGeometry x="-25" y="1210.5" width="100" height="60" as="geometry" />
        </mxCell>
        <mxCell id="e8OPRsYG1ByIHUOe2Pd6-41" value="账户分配" style="rounded=0;whiteSpace=wrap;html=1;" vertex="1" parent="1">
          <mxGeometry x="-25" y="1380" width="100" height="60" as="geometry" />
        </mxCell>
        <mxCell id="e8OPRsYG1ByIHUOe2Pd6-42" value="权限分配" style="rounded=0;whiteSpace=wrap;html=1;" vertex="1" parent="1">
          <mxGeometry x="-25" y="1510" width="100" height="60" as="geometry" />
        </mxCell>
        <mxCell id="e8OPRsYG1ByIHUOe2Pd6-45" value="图层显示" style="rounded=0;whiteSpace=wrap;html=1;" vertex="1" parent="1">
          <mxGeometry x="-25" y="1681.25" width="100" height="60" as="geometry" />
        </mxCell>
        <mxCell id="e8OPRsYG1ByIHUOe2Pd6-47" value="日志添加" style="rounded=0;whiteSpace=wrap;html=1;" vertex="1" parent="1">
          <mxGeometry x="-20" y="1780" width="100" height="60" as="geometry" />
        </mxCell>
        <mxCell id="e8OPRsYG1ByIHUOe2Pd6-48" value="日志查看" style="rounded=0;whiteSpace=wrap;html=1;" vertex="1" parent="1">
          <mxGeometry x="-20" y="1865" width="100" height="60" as="geometry" />
        </mxCell>
        <mxCell id="e8OPRsYG1ByIHUOe2Pd6-49" value="日志删除" style="rounded=0;whiteSpace=wrap;html=1;" vertex="1" parent="1">
          <mxGeometry x="-20" y="1950" width="100" height="60" as="geometry" />
        </mxCell>
      </root>
    </mxGraphModel>
  </diagram>
</mxfile>
